<svg xmlns="http://www.w3.org/2000/svg" viewBox="0 0 124 124"><defs><style>.cls-1,.cls-2,.cls-4{fill:none;}.cls-1,.cls-2{stroke:#333;stroke-linecap:round;stroke-linejoin:round;}.cls-1{stroke-width:4px;}.cls-2,.cls-4{stroke-width:2px;}.cls-3{fill:#333;}.cls-4{stroke:#fff;stroke-miterlimit:10;}.cls-5{fill:#fff;}</style></defs><title>General - Table</title><g id="Layer_2" data-name="Layer 2"><g id="General_-_Table" data-name="General - Table"><g id="General_-_Table-2" data-name="General - Table"><path class="cls-1" d="M31.14,122H110a12,12,0,0,0,12-12V14A12,12,0,0,0,110,2H14A12,12,0,0,0,2,14v96a12,12,0,0,0,3.52,8.47"/><line class="cls-2" x1="61" y1="12" x2="61" y2="112"/><line class="cls-2" x1="90" y1="12" x2="90" y2="112"/><line class="cls-2" x1="12" y1="62" x2="112" y2="62"/><line class="cls-2" x1="12" y1="89" x2="112" y2="89"/><path class="cls-3" d="M14,2H110a12,12,0,0,1,12,12V34a0,0,0,0,1,0,0H2a0,0,0,0,1,0,0V14A12,12,0,0,1,14,2Z"/><circle class="cls-3" cx="24" cy="122" r="2"/><line class="cls-4" x1="90" y1="10.93" x2="90" y2="34"/><path class="cls-5" d="M89,11a1,1,0,1,1,1,1A1,1,0,0,1,89,11Z"/><line class="cls-4" x1="61" y1="10.93" x2="61" y2="34"/><path class="cls-5" d="M60,11a1,1,0,1,1,1,1A1,1,0,0,1,60,11Z"/></g></g></g></svg>